<svg xmlns="http://www.w3.org/2000/svg" version="1.0" viewBox="0 0 296 191"><path fill="#FF9" d="M224.9 1.4c-8.9 3.2-15.1 9.4-17.9 18-1.6 5-.8 16 1.5 20.6 3.5 7.1 11.5 13.6 18.6 15.3 2.1.5 2.8 1.5 3.4 4.4 1 5.6 5.4 13 9.6 16.4 5.6 4.4 10.6 6.2 17.9 6.2 19.6 0 32.8-18.9 26.3-37.8-2.2-6.6-9.3-13.6-16.3-16.2-5.4-2-5.5-2.1-7.3-8.3-4.4-14.8-21.5-23.7-35.8-18.6zm19.6 4.7c5.5 2.6 10.8 8.5 12.3 13.8 1.7 5.5 1.6 5.8-2.5 6.6-11.5 2.1-20.1 9.4-23.1 19.7-1.6 5.5-1.9 5.8-4.2 5.3-10.5-2.5-19.4-16.5-17.4-27.4C211 16.3 217 8.6 224 5.6c5.3-2.3 15.1-2 20.5.5zM258 31.7c-.1 2.7-3.3 9.4-6.3 12.9-3 3.6-8.4 6.4-13.9 7.4-3.5.7-3.8.6-3.8-1.7 0-3.7 4.6-11.9 8.3-14.7 6.9-5.2 15.7-7.4 15.7-3.9zm14.4 3c11.5 8.2 13.1 25.9 3.3 36.1-9.4 9.9-23.4 10.6-33.3 1.9-7.4-6.5-11.1-16.7-6.1-16.7 10.6 0 22.6-10.8 25.1-22.7.7-3 .9-3.1 3.9-2.2 1.8.5 5 2.1 7.1 3.6zM181.8 107c-7.4 2.2-14.5 8.9-18.4 17.4-3.8 8.1-2.7 19.2 2.1 23.3 4.5 3.9 13.3 2.8 18.6-2.3l2.6-2.5 3.1 3c3.9 3.9 8.9 4.1 15 .6l4.3-2.5 3.1 2.3c4 2.9 10.3 2.8 15.4-.3 3.2-2 3.7-2.1 3.1-.6-.4 1-.7 2.2-.7 2.6 0 .5-3.5 3.6-7.8 6.9-19.6 14.9-26.7 28.7-17.1 33.6 6.2 3.2 15.5.8 21.6-5.6 3.8-4.1 6.4-9.6 9.6-20.9l2.4-8.5 7.8-4.7 7.8-4.6 3.9 2.6c5.1 3.4 13.7 4.1 20.5 1.8 6.1-2.1 13.6-7.2 15.7-10.7 1.5-2.5 1.5-2.9 0-4.3-.8-.9-1.9-1.4-2.3-1.1-.4.2-3.1 2-5.9 3.9-8.9 6-20.4 6.8-23.2 1.6-.8-1.5-.1-2 6.2-4.1 5.2-1.6 8.3-3.4 11.5-6.4 4-3.8 4.3-4.6 4.3-9.2 0-6.3-2.5-9.8-8.1-11.3-11.3-3.1-23.4 8.1-25.5 23.7-.6 4.8-1 5.5-6.1 9.3-5 3.7-5.5 3.9-5 1.8 6.9-28.8 7-29.7 5.8-31.2-.8-.9-2.4-1.6-3.8-1.6-1.3 0-3.4-.7-4.7-1.5-5.6-3.7-18.4 2.2-24.8 11.4-2.1 3-4.2 7.6-4.9 10.8-1 4.2-2 6-4.4 7.9-3.3 2.5-6.9 3.1-8 1.5-.3-.6.4-6.7 1.6-13.6 1.1-6.9 1.8-13.2 1.5-14-.3-.8-1.6-1.5-2.8-1.5-1.3 0-3.1-.9-4.1-2-1.8-2.1-5.2-2.4-9.9-1zm8.2 7.7c0 3.7-5.2 18.8-7.4 21.7-4.2 5.5-9.7 6.1-11.5 1.3-2.7-7 5.7-20 14.7-22.7 3.6-1.1 4.2-1.1 4.2-.3zm46.6 1.8c-.3.9-1.3 4.4-2.2 7.8-1.9 7.4-2.8 9.3-6.2 12.9-2.7 3-6.9 3.7-9 1.6-.7-.7-1.2-2.9-1.2-5 0-8.6 8.8-18.7 16.4-18.8 2.1 0 2.7.4 2.2 1.5zm40.2 1.2c.2 1.2-.2 3.1-.7 4.2-1.2 2.1-13.7 8.8-14.7 7.8-1.2-1.1 1.9-7.8 5.1-11.3 2.8-2.9 4-3.5 6.7-3.2 2.5.2 3.4.8 3.6 2.5zM227 165.2c-3 8.1-7.5 14.6-11.4 16.5-6.7 3.1-8.7-1-3.9-7.9 3-4.4 16.6-16.3 17.1-15 .1.5-.6 3.4-1.8 6.4z"/><g fill="#F96" stroke-width="0"><path d="M26.4 66.9c-10.3 6.3-19.6 26-23.9 51-1.9 10.6-1.9 15.5 0 21.8 2.1 7 6.1 10.3 12.3 10.3 4.8 0 12.2-2.8 15.5-5.8 1.7-1.5 1.9-1.4 4 1 1.2 1.4 3.2 3.1 4.4 3.7 3.5 1.8 10.3 1.3 15.1-1.1 4.1-1.9 4.5-2 5.4-.5.5 1 2.1 1.7 3.8 1.7 2.6 0 3.3-.7 5.6-5.3 4.2-8.4 17.4-25.2 18.1-23.1.2.6-.6 3.7-1.7 6.9-1.2 3.3-2.3 8.5-2.7 11.6-.5 4.9-.3 5.9 1.6 7.8 3.5 3.5 13 2.2 20.1-2.9l2.9-2.1.7 2.8c2.3 9.7 9.7 6.2 20.4-9.7 6.7-10 12.9-16 16.5-16 4.3 0 3.1 3.5-2.7 7.9-6.4 4.8-8.8 8.6-8.8 13.8 0 8.4 10 11.9 19.6 6.9 8.1-4.2 8.5-4.7 7.8-9.8l-.6-4.5-2.7 2.5c-4.3 4-8.4 6.2-11.9 6.2-6.4 0-5.1-4.7 3.1-11.1 6.9-5.4 9.7-9.4 9.7-14.2 0-4.9-1.2-7.1-4.8-8.6-8.6-3.6-21.9 6.3-33.2 24.7-1.8 2.9-3.4 5.1-3.6 4.9-.3-.2 0-3.7.6-7.8 1-7.3 1.1-7.5 7.9-14.4 17.3-17.7 26.4-33.7 24.6-43.2-.9-5.2-3.7-7.3-9.2-7.3-11.4 0-20.6 11.2-26.7 32.1-2.7 9.5-5.6 25.4-5.6 30.9 0 3.3-.6 4.1-5.6 7.8-5.7 4.2-10.4 5.5-10.4 2.8 0-.8 1.6-6.5 3.5-12.6 4.2-13.5 4.4-16.4 1-18.6-5.2-3.4-13.2 1.3-22.1 13.1-3.1 4.1-5.8 7.5-5.9 7.5-.4 0 .4-3.4 2.7-11.8 2-6.9 2-7.4.4-9-1.5-1.5-1.9-1.5-4.4-.2-3.3 1.9-6.4 9.9-8.3 21.3-1.1 6.9-1.6 8-4.6 10.3-1.8 1.4-4.9 2.8-6.7 3.1-4.5.7-6.1-2-5.2-8.9.6-4.1 4.2-15.4 7-22 .6-1.3.1-2.1-1.8-2.9-5.7-2.6-10 2.7-13.7 16.9-2.2 8.5-4.8 12-11.4 15.2-5.2 2.5-7 2.5-9.5 0-1.6-1.6-2-3.3-2-8.1v-6.1l8.4-8.9C33.2 102.4 41.9 86 42 74.4c0-4-.5-5.5-2.3-7.2-2.9-2.8-9-2.9-13.3-.3zm6.2 9.6c1.7 4.4-5.5 19.7-15.3 32.6-3.5 4.6-3.8 4.8-4.1 2.6-.4-3 5.2-20.5 8.9-27.9 3.8-7.5 9.1-11.2 10.5-7.3zm107.2 1.8c.4 3.7-3.7 12.4-9.2 19.5-7.7 9.8-9.4 11.7-10 11.1-1-.9 3.4-15.1 7-22.6 5-10.4 11.5-14.7 12.2-8z"/><path d="M48.3 86.5c-5.6 2.4-5.7 9.5-.3 11.4 6.8 2.3 13.2-4 9.6-9.4-.9-1.4-2-2.5-2.5-2.5s-1.5-.2-2.3-.5c-.7-.2-2.7.2-4.5 1z"/></g><path fill="#FC6" d="M160.3 135.5c0 2.2.2 3 .4 1.7.2-1.2.2-3 0-4-.3-.9-.5.1-.4 2.3z"/></svg>