<svg xmlns="http://www.w3.org/2000/svg" version="1.0" viewBox="0 0 298 298"><g fill="#360" stroke-width="0"><path d="M131.5.6C97 5.8 69.5 19 46.1 41.5 23.5 63.3 9.3 89.1 2.4 121c-2.7 12.1-2.7 43.9 0 56 6.9 31.9 19.1 54.7 41.5 77.1 22.4 22.4 45.2 34.6 77.1 41.5 12.1 2.7 43.9 2.7 56 0 31.9-6.9 54.7-19.1 77.1-41.5 22.4-22.4 34.6-45.2 41.5-77.1 2.7-12.1 2.7-43.9 0-56-6.9-31.9-19.1-54.7-41.5-77.1-22-21.9-43.6-33.8-74.6-41-6.8-1.5-13.3-2.1-27-2.4-9.9-.2-19.3-.1-21 .1zm37 16.9c21.4 3.2 41.9 11.4 58.8 23.5 10.3 7.5 25.1 22.5 32.4 33.2 9.9 14.3 16.8 30.8 20.9 49.8 2.6 11.9 2.6 38.2.1 49.9-4.4 20.3-11.4 36.8-21.8 51.5C233 261.7 193.8 282 149.5 282c-34.6 0-65.7-12.2-90.3-35.5-19.9-18.8-31.8-38.9-38.8-65.8-3.6-13.9-4.5-37.6-2-52.8C30.2 56.4 97.6 6.9 168.5 17.5z"/><path d="M126.9 23.5c-26.2 4.9-52 19-69.9 38.2C43.8 75.8 35.4 89.6 29.2 107c-5.6 16.1-6.7 22.8-6.7 42.5s1.1 26.3 6.7 42.5c15.2 43.3 53.6 75.7 99.2 83.6 14 2.5 38.8 1.5 52.5-2.1 45.6-11.9 80.5-46.3 92.6-91.5 16.1-60.4-14.8-124.2-72.5-149.6-5.2-2.3-14.2-5.4-20-6.9-9.2-2.4-12.7-2.8-28.5-3.1-12.6-.2-20.3.1-25.6 1.1zm14.2 31.6c5.7 5.7 8.2 20.7 4.5 26.4-3.6 5.4-10.9 1.6-14.1-7.4-1.9-5.6-1.9-14.4 0-18.1 1.9-3.7 6.4-4.1 9.6-.9zm29.3.1c2.3 3.3 2 13.2-.5 18.8-3.9 8.6-10.5 12.6-13.9 8.5-4.1-4.9-1.2-19.5 5-25.7 4.3-4.3 7.2-4.8 9.4-1.6zm12 23.7c5.5 6.1.2 22.1-7.4 22.1-3.5 0-5-1.9-5.7-6.8-.7-5 1.1-10.3 4.7-14.2 3.2-3.4 5.9-3.8 8.4-1.1zm-55.8 1.6c3.3 3.3 5.4 8.5 5.4 13.4 0 9.5-9.8 9.4-14.4-.3-1.9-4-2.1-12.7-.4-14.4 2-2 6.7-1.4 9.4 1.3zm27.2 3.9c3.9 2 14 13 15.7 17 3 7.2.7 18.3-4.6 22-2.8 1.9-7.8 2.1-10.2.3-1-.7-2.4-3-3.1-5.1l-1.3-3.8-.6 2.9c-1.3 6.5-8.3 9.4-13.6 5.7-5.3-3.7-7.6-14.8-4.6-21.9 2.4-5.8 15.3-18.5 18.8-18.5.4 0 2 .6 3.5 1.4zm-28.3 62c6.2 2.6 9.2 12.9 6 21.1-1.9 5-5.4 7.5-10.5 7.5-3 0-3 0-3 5.4 0 2.9-.3 6.8-.6 8.5-.6 2.7-1 3.1-4 3.1h-3.3l-.3-20.8c-.4-28.4-.9-26.2 6.3-26.2 3.3 0 7.5.6 9.4 1.4zM160 149v3.9l-5.7.3-5.8.3-.3 4.2-.3 4.3h11.2l-.3 4.2-.3 4.3-5.2.3-5.3.3v10.8l5.8.3 5.7.3v8h-20l-.3-21.5c-.1-11.8 0-22 .2-22.7.4-.9 3.4-1.3 10.6-1.3h10v4zm30-.1c0 3.9-.1 4-3.7 4.3l-3.8.3-.3 19.2-.2 19.3h-8v-38.9l-3.7-.3c-3.1-.2-3.9-.7-4.1-2.6-.7-4.9-.1-5.2 12.3-5.2H190v3.9zm-63.9 53.8c5.8 3.4 7.8 15.2 3.6 21.4-2.6 3.8-6 5.9-9.9 5.9-2.7 0-2.7.1-3 7.7l-.3 7.8-3.2.3-3.2.3-.3-20.3c-.2-11.2-.1-21.3.1-22.6.3-2 .9-2.2 6.8-2.2 4.3 0 7.5.6 9.4 1.7zm29.9-1.3c0 .3 2 9.9 4.5 21.4 2.5 11.5 4.5 21.2 4.5 21.5 0 .4-1.8.7-3.9.7-3.6 0-4-.3-4.6-3-.6-2.8-1-3-5-3s-4.4.2-4.7 2.7c-.3 2.5-.7 2.8-4.7 3.1-4.1.3-4.3.2-3.8-2 .3-1.3 2.5-11.2 4.8-22.1l4.3-19.7h4.3c2.4 0 4.3.2 4.3.4zm23.8 17.8.2 17.8h10v7.8l-8.5.7c-4.6.4-8.9.4-9.5 0-.6-.4-1-8.4-1-22.6v-22l4.3.3 4.2.3.3 17.7z"/><path d="M118 160.5c0 8.1 1.3 9.7 4.4 5.3 3-4.2 1-12.8-3-12.8-1.1 0-1.4 1.6-1.4 7.5zm-1 55c0 7.5.7 8.7 3.6 6.7 3.7-2.4 4-8.8.7-12.5-3.3-3.5-4.3-2.1-4.3 5.8zm33.3 10.3c-1 5-.9 5.2 1.2 5.2 2.2 0 2.2-.2 1.4-4.3-.5-2.3-1.1-4.6-1.3-5.2-.1-.5-.7 1.4-1.3 4.3z"/></g><path fill="#690" d="M147.1 72.6c0 1.1.3 1.4.6.6.3-.7.2-1.6-.1-1.9-.3-.4-.6.2-.5 1.3zM117.2 160c0 1.4.2 1.9.5 1.2.2-.6.2-1.8 0-2.5-.3-.6-.5-.1-.5 1.3zm60.6 85.7c.7.3 1.6.2 1.9-.1.4-.3-.2-.6-1.3-.5-1.1 0-1.4.3-.6.6z"/><path fill="#693" d="M142.3 16.7c.9.2 2.3.2 3 0 .6-.3-.1-.5-1.8-.5-1.6 0-2.2.2-1.2.5zm13 0c.9.2 2.3.2 3 0 .6-.3-.1-.5-1.8-.5-1.6 0-2.2.2-1.2.5zm-10.5 5c.6.2 1.8.2 2.5 0 .6-.3.1-.5-1.3-.5-1.4 0-1.9.2-1.2.5zm8 0c.7.3 1.6.2 1.9-.1.4-.3-.2-.6-1.3-.5-1.1 0-1.4.3-.6.6zm-96.9 33-3.4 3.8 3.8-3.4c3.4-3.3 4.2-4.1 3.4-4.1-.2 0-1.9 1.7-3.8 3.7zm3.6 3.5-4 4.3 4.3-4c3.9-3.6 4.7-4.5 3.9-4.5-.2 0-2.1 1.9-4.2 4.2zM244 63.4c0 .2.8 1 1.8 1.7 1.5 1.3 1.6 1.2.3-.4s-2.1-2.1-2.1-1.3zm-110 58c0 .2.8 1 1.8 1.7 1.5 1.3 1.6 1.2.3-.4s-2.1-2.1-2.1-1.3zm30.9 1.3c-1.3 1.6-1.2 1.7.4.4.9-.7 1.7-1.5 1.7-1.7 0-.8-.8-.3-2.1 1.3zm112.2 15.9c0 1.1.3 1.4.6.6.3-.7.2-1.6-.1-1.9-.3-.4-.6.2-.5 1.3zm5 2c0 1.1.3 1.4.6.6.3-.7.2-1.6-.1-1.9-.3-.4-.6.2-.5 1.3zm-142.8 13.9c0 4.4.2 6.1.4 3.7.2-2.3.2-5.9 0-8-.2-2-.4-.1-.4 4.3zm-22.1 1c0 1.6.2 2.2.5 1.2.2-.9.2-2.3 0-3-.3-.6-.5.1-.5 1.8zm164.9 3.1c0 1.1.3 1.4.6.6.3-.7.2-1.6-.1-1.9-.3-.4-.6.2-.5 1.3zm-164.9 5.9c0 1.6.2 2.2.5 1.2.2-.9.2-2.3 0-3-.3-.6-.5.1-.5 1.8zm33.6 6.2c1.2.2 3.2.2 4.5 0 1.2-.2.2-.4-2.3-.4s-3.5.2-2.2.4zm-33.5 10.8c0 2.7.2 3.8.4 2.2.2-1.5.2-3.7 0-5-.2-1.2-.4 0-.4 2.8zm21.8 6.1c0 1.1.3 1.4.6.6.3-.7.2-1.6-.1-1.9-.3-.4-.6.2-.5 1.3zm32.3 47.9c0 4.9.1 7.1.3 4.8.2-2.3.2-6.4 0-9-.2-2.6-.3-.8-.3 4.2zm7.9-3c0 2.7.2 3.8.4 2.2.2-1.5.2-3.7 0-5-.2-1.2-.4 0-.4 2.8zM49 236.4c0 .2.8 1 1.8 1.7 1.5 1.3 1.6 1.2.3-.4s-2.1-2.1-2.1-1.3zm8 1.9c0 .2 1.5 1.6 3.3 3.3l3.2 2.9-2.9-3.3c-2.8-3-3.6-3.7-3.6-2.9zm185.4 5.9-2.9 3.3 3.3-2.9c3-2.8 3.7-3.6 2.9-3.6-.2 0-1.6 1.5-3.3 3.2zm-130.1 1.5c.9.2 2.3.2 3 0 .6-.3-.1-.5-1.8-.5-1.6 0-2.2.2-1.2.5zm61.5 0c.6.2 1.8.2 2.5 0 .6-.3.1-.5-1.3-.5-1.4 0-1.9.2-1.2.5zm-28 32c.6.2 1.8.2 2.5 0 .6-.3.1-.5-1.3-.5-1.4 0-1.9.2-1.2.5zm6 0c.6.2 1.8.2 2.5 0 .6-.3.1-.5-1.3-.5-1.4 0-1.9.2-1.2.5zm10 4c.7.3 1.6.2 1.9-.1.4-.3-.2-.6-1.3-.5-1.1 0-1.4.3-.6.6z"/><path fill="#996" d="M146.8 16.7c.7.3 1.6.2 1.9-.1.4-.3-.2-.6-1.3-.5-1.1 0-1.4.3-.6.6zm5 0c.7.3 1.6.2 1.9-.1.4-.3-.2-.6-1.3-.5-1.1 0-1.4.3-.6.6zM21.3 149.5c0 3.3.2 4.5.4 2.7.2-1.8.2-4.5 0-6s-.4 0-.4 3.3zm144.9-.5c0 1.4.2 1.9.5 1.2.2-.6.2-1.8 0-2.5-.3-.6-.5-.1-.5 1.3zm-7 1c0 1.4.2 1.9.5 1.2.2-.6.2-1.8 0-2.5-.3-.6-.5-.1-.5 1.3zm122.9 5.6c0 1.1.3 1.4.6.6.3-.7.2-1.6-.1-1.9-.3-.4-.6.2-.5 1.3zM132.2 161c0 1.4.2 1.9.5 1.2.2-.6.2-1.8 0-2.5-.3-.6-.5-.1-.5 1.3zm7.2 13.5c0 6 .1 8.4.3 5.2.2-3.2.2-8.1 0-11-.2-2.9-.3-.3-.3 5.8zm-27.6 17.2c.6.2 1.8.2 2.5 0 .6-.3.1-.5-1.3-.5-1.4 0-1.9.2-1.2.5zm65.5 0c.9.2 2.3.2 3 0 .6-.3-.1-.5-1.8-.5-1.6 0-2.2.2-1.2.5zm2 18.3c0 3.6.2 5 .4 3.2.2-1.7.2-4.7 0-6.5-.2-1.7-.4-.3-.4 3.3zm-8 7.5c0 4.4.2 6.1.4 3.7.2-2.3.2-5.9 0-8-.2-2-.4-.1-.4 4.3zm7.9 7c0 1.6.2 2.2.5 1.2.2-.9.2-2.3 0-3-.3-.6-.5.1-.5 1.8z"/><path fill="#9C6" d="M157.8 21.7c.7.3 1.6.2 1.9-.1.4-.3-.2-.6-1.3-.5-1.1 0-1.4.3-.6.6zm-3.7 52.9c0 1.1.3 1.4.6.6.3-.7.2-1.6-.1-1.9-.3-.4-.6.2-.5 1.3zm30 12c0 1.1.3 1.4.6.6.3-.7.2-1.6-.1-1.9-.3-.4-.6.2-.5 1.3zm-163 56c0 1.1.3 1.4.6.6.3-.7.2-1.6-.1-1.9-.3-.4-.6.2-.5 1.3zm261.2 6.4c0 3 .2 4.3.4 2.7.2-1.5.2-3.9 0-5.5-.2-1.5-.4-.2-.4 2.8zm-261.2 7.6c0 1.1.3 1.4.6.6.3-.7.2-1.6-.1-1.9-.3-.4-.6.2-.5 1.3zm153.2 5.9c0 3.8.2 5.3.4 3.2.2-2 .2-5.2 0-7-.2-1.7-.4-.1-.4 3.8zm-.1 26c0 1.6.2 2.2.5 1.2.2-.9.2-2.3 0-3-.3-.6-.5.1-.5 1.8zm-2.9 18c0 2.2.2 3 .4 1.7.2-1.2.2-3 0-4-.3-.9-.5.1-.4 2.3zm-40.1 9.5c0 1.4.2 1.9.5 1.2.2-.6.2-1.8 0-2.5-.3-.6-.5-.1-.5 1.3zm48 3c0 1.9.2 2.7.5 1.7.2-.9.2-2.5 0-3.5-.3-.9-.5-.1-.5 1.8zm3.6 18.7c1.2.2 3.2.2 4.5 0 1.2-.2.2-.4-2.3-.4s-3.5.2-2.2.4zm-42 40c.7.3 1.6.2 1.9-.1.4-.3-.2-.6-1.3-.5-1.1 0-1.4.3-.6.6zm16 4c.7.3 1.6.2 1.9-.1.4-.3-.2-.6-1.3-.5-1.1 0-1.4.3-.6.6z"/><path fill="#CC9" d="M136.8 21.7c.7.3 1.6.2 1.9-.1.4-.3-.2-.6-1.3-.5-1.1 0-1.4.3-.6.6zm24 0c.7.3 1.6.2 1.9-.1.4-.3-.2-.6-1.3-.5-1.1 0-1.4.3-.6.6zM242 54.5c1.9 1.9 3.6 3.5 3.9 3.5.3 0-1-1.6-2.9-3.5s-3.6-3.5-3.9-3.5c-.3 0 1 1.6 2.9 3.5zm-81.1 2.2c-1.3 1.6-1.2 1.7.4.4.9-.7 1.7-1.5 1.7-1.7 0-.8-.8-.3-2.1 1.3zm76.1-1.4c0 .2 1.5 1.6 3.3 3.3l3.2 2.9-2.9-3.3c-2.8-3-3.6-3.7-3.6-2.9zm-106.9 5.3c0 1.1.3 1.4.6.6.3-.7.2-1.6-.1-1.9-.3-.4-.6.2-.5 1.3zm41 6c0 1.1.3 1.4.6.6.3-.7.2-1.6-.1-1.9-.3-.4-.6.2-.5 1.3zm-41 1c0 1.1.3 1.4.6.6.3-.7.2-1.6-.1-1.9-.3-.4-.6.2-.5 1.3zm-10.3 11.1c.7.3 1.6.2 1.9-.1.4-.3-.2-.6-1.3-.5-1.1 0-1.4.3-.6.6zm15.2 1.7c0 .2.8 1 1.8 1.7 1.5 1.3 1.6 1.2.3-.4s-2.1-2.1-2.1-1.3zm23.8 3.3c.7.3 1.6.2 1.9-.1.4-.3-.2-.6-1.3-.5-1.1 0-1.4.3-.6.6zm-18.9 7-2.4 2.8 2.8-2.4c2.5-2.3 3.2-3.1 2.4-3.1-.2 0-1.4 1.2-2.8 2.7zm20.6.3c1 1.1 2 2 2.3 2 .3 0-.3-.9-1.3-2s-2-2-2.3-2c-.3 0 .3.9 1.3 2zm-29.3 2.5c0 1.6.2 2.2.5 1.2.2-.9.2-2.3 0-3-.3-.6-.5.1-.5 1.8zm37.9-.9c0 1.1.3 1.4.6.6.3-.7.2-1.6-.1-1.9-.3-.4-.6.2-.5 1.3zm-40.5 6.9c-1.1.8-1.5 1.5-.9 1.5s1.6-.7 2.3-1.5c1.6-1.9 1.1-1.9-1.4 0zm1.7 10c0 2.2.2 3 .4 1.7.2-1.2.2-3 0-4-.3-.9-.5.1-.4 2.3zm39.8-1.9c0 1.1.3 1.4.6.6.3-.7.2-1.6-.1-1.9-.3-.4-.6.2-.5 1.3zm0 4c0 1.1.3 1.4.6.6.3-.7.2-1.6-.1-1.9-.3-.4-.6.2-.5 1.3zm-24.2 11.1c-1.3 1.6-1.2 1.7.4.4.9-.7 1.7-1.5 1.7-1.7 0-.8-.8-.3-2.1 1.3zM21.1 139.6c0 1.1.3 1.4.6.6.3-.7.2-1.6-.1-1.9-.3-.4-.6.2-.5 1.3zm-4 1c0 1.1.3 1.4.6.6.3-.7.2-1.6-.1-1.9-.3-.4-.6.2-.5 1.3zm95.7 5.1c1.2.2 3.2.2 4.5 0 1.2-.2.2-.4-2.3-.4s-3.5.2-2.2.4zm29 0c.6.2 1.8.2 2.5 0 .6-.3.1-.5-1.3-.5-1.4 0-1.9.2-1.2.5zm31.5 0c3.2.2 8.1.2 11 0 2.9-.2.3-.3-5.8-.3-6 0-8.4.1-5.2.3zm-4.5 7c.6.2 1.8.2 2.5 0 .6-.3.1-.5-1.3-.5-1.4 0-1.9.2-1.2.5zm-151.7 5.9c0 1.1.3 1.4.6.6.3-.7.2-1.6-.1-1.9-.3-.4-.6.2-.5 1.3zm130.1.4c0 1.4.2 1.9.5 1.2.2-.6.2-1.8 0-2.5-.3-.6-.5-.1-.5 1.3zm-126.1.6c0 1.1.3 1.4.6.6.3-.7.2-1.6-.1-1.9-.3-.4-.6.2-.5 1.3zm129.2 3.1c1.5.2 3.9.2 5.5 0 1.5-.2.2-.4-2.8-.4s-4.3.2-2.7.4zm24 15.3c0 4.7.2 6.6.4 4.2.2-2.3.2-6.1 0-8.5-.2-2.3-.4-.4-.4 4.3zm-27.1.5c0 1.6.2 2.2.5 1.2.2-.9.2-2.3 0-3-.3-.6-.5.1-.5 1.8zm-.9 12.2c2 .2 5.4.2 7.5 0 2-.2.3-.4-3.8-.4s-5.8.2-3.7.4zM126 203.4c0 .2.8 1 1.8 1.7 1.5 1.3 1.6 1.2.3-.4s-2.1-2.1-2.1-1.3zm24.8 28.3c.6.2 1.8.2 2.5 0 .6-.3.1-.5-1.3-.5-1.4 0-1.9.2-1.2.5zm88.7 9.5-4 4.3 4.3-4c2.3-2.1 4.2-4 4.2-4.2 0-.8-.9 0-4.5 3.9zm-89.7-2.5c1.2.2 3 .2 4 0 .9-.3-.1-.5-2.3-.4-2.2 0-3 .2-1.7.4zM56.5 244c1 1.1 2 2 2.3 2 .3 0-.3-.9-1.3-2s-2-2-2.3-2c-.3 0 .3.9 1.3 2zm59.6-.4c0 1.1.3 1.4.6.6.3-.7.2-1.6-.1-1.9-.3-.4-.6.2-.5 1.3zm41.6.6c.2.5 1.7.8 3.3.8 1.6 0 3.1-.3 3.3-.8.3-.4-1.2-.7-3.3-.7-2.1 0-3.6.3-3.3.7zm-17.4.5c.9.2 2.5.2 3.5 0 .9-.3.1-.5-1.8-.5-1.9 0-2.7.2-1.7.5zm-3.5 33c.6.2 1.8.2 2.5 0 .6-.3.1-.5-1.3-.5-1.4 0-1.9.2-1.2.5zm23 0c.6.2 1.8.2 2.5 0 .6-.3.1-.5-1.3-.5-1.4 0-1.9.2-1.2.5zm-17 4c.6.2 1.8.2 2.5 0 .6-.3.1-.5-1.3-.5-1.4 0-1.9.2-1.2.5zm10 0c.6.2 1.8.2 2.5 0 .6-.3.1-.5-1.3-.5-1.4 0-1.9.2-1.2.5z"/><path fill="#FFC" d="M57 54.5C54.6 57 52.8 59 53.1 59c.3 0 2.5-2 4.9-4.5 2.4-2.5 4.2-4.5 3.9-4.5-.3 0-2.5 2-4.9 4.5zm176-3.1c0 .2.8 1 1.8 1.7 1.5 1.3 1.6 1.2.3-.4s-2.1-2.1-2.1-1.3zM58.9 57.7l-3.4 3.8 3.8-3.4c3.4-3.3 4.2-4.1 3.4-4.1-.2 0-1.9 1.7-3.8 3.7zm73.6-2.6c-.4.6-.5 1.2-.2 1.5.2.3.7-.2 1-1.1.7-1.7.1-2-.8-.4zm28.9 2.1-2.9 3.3 3.5-3c1.9-1.7 3.7-3.1 3.9-3.3.2-.1 0-.2-.5-.2-.6 0-2.3 1.5-4 3.2zm5.6-2.8c0 .2.7.7 1.6 1 .8.3 1.2.2.9-.4-.6-1-2.5-1.4-2.5-.6zm77 8c0 .2.8 1 1.8 1.7 1.5 1.3 1.6 1.2.3-.4s-2.1-2.1-2.1-1.3zM146.2 73c0 1.9.2 2.7.5 1.7.2-.9.2-2.5 0-3.5-.3-.9-.5-.1-.5 1.8zm17.7 7.7-2.4 2.8 2.8-2.4c2.5-2.3 3.2-3.1 2.4-3.1-.2 0-1.4 1.2-2.8 2.7zm13.9-2c.6.2 1.8.2 2.5 0 .6-.3.1-.5-1.3-.5-1.4 0-1.9.2-1.2.5zm-61.7 6.9c0 1.1.3 1.4.6.6.3-.7.2-1.6-.1-1.9-.3-.4-.6.2-.5 1.3zm23.9 6.1-5.5 5.8 5.8-5.5c3.1-3 5.7-5.6 5.7-5.7 0-.8-1 .1-6 5.4zm20-.2c3 3 5.7 5.5 5.9 5.5.3 0-1.9-2.5-4.9-5.5-3-3-5.7-5.5-5.9-5.5-.3 0 1.9 2.5 4.9 5.5zm-40 4.9c0 .2.8 1 1.8 1.7 1.5 1.3 1.6 1.2.3-.4s-2.1-2.1-2.1-1.3zm58.4 1.8-1.9 2.3 2.3-1.9c2.1-1.8 2.7-2.6 1.9-2.6-.2 0-1.2 1-2.3 2.2zm-28.8 15.6c-.3.5.1.9.9.9s1.2-.4.9-.9c-.3-.4-.7-.8-.9-.8-.2 0-.6.4-.9.8zM278.2 144c0 1.4.2 1.9.5 1.2.2-.6.2-1.8 0-2.5-.3-.6-.5-.1-.5 1.3zm-260.9 5c0 3.6.2 5 .4 3.2.2-1.7.2-4.7 0-6.5-.2-1.7-.4-.3-.4 3.3zm137-3.3c.9.2 2.5.2 3.5 0 .9-.3.1-.5-1.8-.5-1.9 0-2.7.2-1.7.5zm34.9 3.3c0 1.9.2 2.7.5 1.7.2-.9.2-2.5 0-3.5-.3-.9-.5-.1-.5 1.8zm-78.8 22c0 10.7.2 15.1.3 9.7.2-5.3.2-14.1 0-19.5-.1-5.3-.3-.9-.3 9.8zm38.9-18.3c.9.2 2.3.2 3 0 .6-.3-.1-.5-1.8-.5-1.6 0-2.2.2-1.2.5zm128.9 2.3c0 1.4.2 1.9.5 1.2.2-.6.2-1.8 0-2.5-.3-.6-.5-.1-.5 1.3zm-96.8 19.5c0 8.8.2 12.3.3 7.7.2-4.6.2-11.8 0-16-.1-4.2-.3-.5-.3 8.3zm-23.5-7.7c-.3 2-.2 2.9.4 2.3.5-.5.7-1.9.5-3.2-.3-2-.5-1.9-.9.9zm-38.1 7.9c.7.3 1.6.2 1.9-.1.4-.3-.2-.6-1.3-.5-1.1 0-1.4.3-.6.6zm30.5 8c1.5.2 3.7.2 5 0 1.2-.2 0-.4-2.8-.4-2.7 0-3.8.2-2.2.4zm-40 19.8c-.3.9-.3 1.9.1 2.2.3.4.6-.1.6-1 0-1 1.1-1.7 3.3-2l3.2-.4-3.3-.1c-2.1-.1-3.5.3-3.9 1.3zm39.5-.8c1.2.2 3 .2 4 0 .9-.3-.1-.5-2.3-.4-2.2 0-3 .2-1.7.4zm-39.4 23.8c0 10.4.2 14.6.3 9.2.2-5.4.2-13.9 0-19-.1-5.1-.3-.7-.3 9.8zm6-17.1c-.3.7-.4 4.2-.2 7.7l.3 6.4.5-7.8c.5-7.7.4-8.9-.6-6.3zm4.6 0c0 .2.8 1 1.8 1.7 1.5 1.3 1.6 1.2.3-.4s-2.1-2.1-2.1-1.3zm3.2 7.1c0 1.6.2 2.2.5 1.2.2-.9.2-2.3 0-3-.3-.6-.5.1-.5 1.8zm23.9 15.1c0 1.1.3 1.4.6.6.3-.7.2-1.6-.1-1.9-.3-.4-.6.2-.5 1.3zm6 0c0 1.1.3 1.4.6.6.3-.7.2-1.6-.1-1.9-.3-.4-.6.2-.5 1.3zm-37.8 5.4c0 3 .2 4.3.4 2.7.2-1.5.2-3.9 0-5.5-.2-1.5-.4-.2-.4 2.8zm129.6-1.3c-1.3 1.6-1.2 1.7.4.4 1.6-1.3 2.1-2.1 1.3-2.1-.2 0-1 .8-1.7 1.7zm-196.9.7c0 .2.8 1 1.8 1.7 1.5 1.3 1.6 1.2.3-.4s-2.1-2.1-2.1-1.3zm10 6.1c1.9 1.9 3.6 3.5 3.9 3.5.3 0-1-1.6-2.9-3.5s-3.6-3.5-3.9-3.5c-.3 0 1 1.6 2.9 3.5zm130.1-.8c0 1.7-.7 3.4-1.3 3.6-1 .4-1 .6 0 .6 1.6.1 2.5-2.1 1.9-5.1-.3-1.8-.5-1.6-.6.9zm52.9 2.8c-2.4 2.5-4.2 4.5-3.9 4.5.3 0 2.5-2 4.9-4.5 2.4-2.5 4.2-4.5 3.9-4.5-.3 0-2.5 2-4.9 4.5zm-59.2 1.2c.6.2 1.8.2 2.5 0 .6-.3.1-.5-1.3-.5-1.4 0-1.9.2-1.2.5zM62 248.4c0 .2.8 1 1.8 1.7 1.5 1.3 1.6 1.2.3-.4s-2.1-2.1-2.1-1.3zm85.8 33.3c.6.2 1.8.2 2.5 0 .6-.3.1-.5-1.3-.5-1.4 0-1.9.2-1.2.5z"/><g fill="#FFF" stroke-width="0"><path d="M130 18.5c-20.1 3.2-40.8 11.7-57.3 23.6-10.8 7.7-25.3 22.8-33 34.2-9.9 14.7-16.8 32.2-20.2 51-2.6 14.4-1.7 39.5 1.8 52.9 10.5 40 35 70.2 71.2 87.9 18 8.8 31.4 12 52.5 12.6 24.9.8 42.7-3 63.5-13.3 46.6-23.1 75.6-72.1 73.2-123.9C278.9 80.1 232 28.1 169 18.5c-11.5-1.8-27.5-1.8-39 0zm52.2 6.3c27.1 7.2 50.7 22.6 68.1 44.2 40.2 50.3 37.3 121.9-6.9 168.9-16.3 17.3-38.2 30.3-60.9 36.2-10.1 2.6-14.5 3.2-27.7 3.6-18 .6-27.3-.4-42.2-4.8C58.5 256.8 21 206.3 21 149.5c0-49.9 28.5-95 73.5-116.5 19.3-9.2 33.7-12.1 58-11.6 16.3.3 19.1.6 29.7 3.4z"/><path d="M132.6 56.9c-3.2 6.1-1 18.4 4.1 23.5 5.7 5.7 9.7 1.6 9.1-9.3-.7-12.7-9.2-21.9-13.2-14.2zm30 .1c-7.9 7-9.9 26-2.7 26 4 0 9.9-9.2 10.8-17 .7-6.1-.2-9.6-2.7-11-1.5-.8-2.6-.5-5.4 2zM118 80.9c-2.3 4.5-.7 11.7 3.8 16.3 6.3 6.7 11.8-.2 7.8-9.7-3.1-7.2-9.3-10.8-11.6-6.6zm55.6 1.8c-6.7 10.2-1.5 22.9 5.7 14.3 3.7-4.3 5.1-10.2 3.7-14.6-1-2.8-1.6-3.4-4.1-3.4-2.2 0-3.4.8-5.3 3.7zm-26.2 3.2c-4.3 2.7-13.3 12.6-14.9 16.6-2 4.6-1.8 9.1.4 14.1 4.2 9.3 12.4 10 15.4 1.3 1.6-4.7 2.8-4.8 4.3-.2 3.2 9.2 11.7 8 16-2.2 3.1-7.6 1.2-13.7-7.3-22.6-7.8-8.2-10.1-9.3-13.9-7zm-36.5 61.8c-.2 1-.3 11.1-.1 22.5l.3 20.8h2.4c2.9 0 3.5-1.6 3.5-9.6 0-6.1.1-6.4 2.8-6.9 8.3-1.7 11.1-4.5 11.9-11.6 1.1-10.5-4.5-16.9-14.7-16.9-4.7 0-5.8.3-6.1 1.7zM123 154c1.4 1.4 2 3.3 2 6.3 0 5.2-2.2 8.7-5.6 8.7-2.4 0-2.4-.2-2.4-8.5 0-7.8.2-8.5 2-8.5 1.1 0 2.9.9 4 2zm17.7-7.3c-.4.3-.7 10.3-.7 22v21.4l9.3-.3 9.2-.3v-3c0-2.9-.2-3-5.5-3.5l-5.5-.5-.3-6.2-.3-6.2 5.3-.3c5.2-.3 5.3-.4 5.6-3.6l.3-3.2H147v-3.9c0-6.5.6-7.1 6.6-7.1 5.3 0 5.4 0 5.4-3v-3h-8.8c-4.9 0-9.2.3-9.5.7zm26.3 2.2c0 2.7.3 3 3.8 3.3l3.7.3.3 19.2.2 19.3h6v-14.3c0-7.8.3-16.6.6-19.5.7-5.1.7-5.2 4-5.2 3.1 0 3.4-.3 3.4-3v-3h-22v2.9zm-52.6 52.9c-2 .2-3.3.9-3.5 2-.2.9-.3 10.6-.1 21.4l.3 19.8h2.4c2.4 0 2.5-.2 2.5-8v-8h3.3c8 0 12.7-7 11.2-16.6-1.2-7.9-6.6-11.5-16.1-10.6zm7.7 7.1c5 4 2.2 15.1-3.8 15.1-2.2 0-2.3-.3-2.3-7.8 0-9.9 1.2-11.3 6.1-7.3zm50.4-6.7c-.3.7-.4 10.6-.3 21.8l.3 20.5h7c9 0 9.5-.2 9.5-3.6 0-2.8-.2-2.9-5-2.9h-5l-.2-18.3-.3-18.2-2.8-.3c-1.6-.2-2.9.2-3.2 1zm-24.5.4c0 .8-8 37.4-8.6 39.7-.5 1.6-.1 1.8 2.7 1.5 2.6-.2 3.4-.9 3.9-2.8.5-2.2 1.2-2.5 5.3-2.8 4.5-.3 4.8-.2 5.8 2.7.9 2.5 1.6 3.1 4.1 3.1 2.8 0 3-.2 2.3-2.8-.4-1.5-2.2-9.9-4.1-18.7-1.9-8.8-3.6-17-3.9-18.3-.4-1.8-1.2-2.2-4-2.2-1.9 0-3.5.3-3.5.6zm5.4 21.1c.3 2.1.9 4.8 1.2 6 .6 2.1.3 2.3-3 2.3-2 0-3.6-.3-3.6-.6 0-.6 2-9.3 2.6-11.2.7-2.3 2.1-.4 2.8 3.5z"/></g><path fill="#CCC" d="M145.8 145.7c.6.2 1.8.2 2.5 0 .6-.3.1-.5-1.3-.5-1.4 0-1.9.2-1.2.5zm132.5 3.8c0 2.2.2 3 .4 1.7.2-1.2.2-3 0-4-.3-.9-.5.1-.4 2.3zm-93 3.2c.9.2 2.3.2 3 0 .6-.3-.1-.5-1.8-.5-1.6 0-2.2.2-1.2.5zm-38.2 21.9c0 1.1.3 1.4.6.6.3-.7.2-1.6-.1-1.9-.3-.4-.6.2-.5 1.3z"/><path fill="#993" d="M159.1 185.6c0 1.1.3 1.4.6.6.3-.7.2-1.6-.1-1.9-.3-.4-.6.2-.5 1.3z"/><path fill="#FCC" d="M149.8 145.7c.6.2 1.8.2 2.5 0 .6-.3.1-.5-1.3-.5-1.4 0-1.9.2-1.2.5zm4 7c.6.2 1.8.2 2.5 0 .6-.3.1-.5-1.3-.5-1.4 0-1.9.2-1.2.5z"/></svg>